# xmcd CD database file
#
# Track frame offsets:
#	150
#	19944
#	33934
#	53256
#	74541
#	100610
#	116387
#	134265
#	152834
#	171961
#	189015
#	206685
#	220132
#	243067
#	263538
#
# Disc length: 3864 seconds
#
# Revision: 1
# Processed by: cddbd v1.5.2PL0 Copyright (c) Steve Scherf et al.
# Submitted via: CDex 1.51
#
DISCID=bc0f160f
DTITLE=Mojo Blues Band - Thirty Year Blues Affair - CD1
DYEAR=2007
DGENRE=Blues
TTITLE0=You're Steppin On My Tears
TTITLE1=Jenny Lee
TTITLE2=I Carry A Heavy Heart
TTITLE3=My Baby Got A Car Ass
TTITLE4=Don't Throw Your Love On Me So Strong
TTITLE5=Hot Shots
TTITLE6=Barefoot Rock
TTITLE7=I Ain't Got It No More
TTITLE8=When Love Is Comin' Around To Kill
TTITLE9=You Better Do The Right Thing
TTITLE10=Tiger's Boogie
TTITLE11=You Faded Away Like The Morning Dew
TTITLE12=Don't Mess With Young Girls
TTITLE13=Tattle Tale
TTITLE14=Bring Me Flowers
EXTD=YEAR: 2007
EXTT0=
EXTT1=
EXTT2=
EXTT3=
EXTT4=
EXTT5=
EXTT6=
EXTT7=
EXTT8=
EXTT9=
EXTT10=
EXTT11=
EXTT12=
EXTT13=
EXTT14=
PLAYORDER=
